<svg width="390" height="630" viewBox="0 0 390 630" fill="none" xmlns="http://www.w3.org/2000/svg">
<path d="M158.142 453.595V518.192L263.57 439.121V373.583L158.142 453.595Z" fill="#621FBF"/>
<path d="M259.805 179.793H49.8901V629.145L108.212 585.845V298.5L157.127 259.112L259.805 179.793Z" fill="white"/>
<path d="M49.8901 62.1273L0 0H271.101C357.702 16.0025 387.626 86.6484 389.707 141.198C391.789 195.748 370.881 227.8 329.463 267.336L160.025 397.238V323.815L289.927 219.328C289.927 219.328 305.93 207.091 316.284 193.912C316.866 193.172 330.404 180.734 330.404 140.257C330.404 99.7802 311.578 74.3645 259.805 62.1273H49.8901Z" fill="white"/>
</svg>
