<svg width="1139" height="247" viewBox="0 0 1139 247" fill="none" xmlns="http://www.w3.org/2000/svg">
<rect x="1004" y="118" width="128" height="18" fill="#621FBF"/>
<rect x="1004" y="61" width="128" height="18" fill="#621FBF"/>
<rect x="1004" y="4" width="128" height="18" fill="white"/>
<path d="M731.682 136V0H731.891L811.102 98.0804L802.533 96.622L881.535 0H881.953V136H861.889V40.1072L863.143 49.0402L806.086 119.41H805.668L747.775 49.0402L751.328 40.8365V136H731.682Z" fill="#621FBF"/>
<path d="M562.603 4.19305H582.875V136H562.603V4.19305Z" fill="#621FBF"/>
<path d="M369.562 4.19305C377.225 4.19305 384.262 5.10458 390.671 6.92765C397.22 8.62917 402.863 11.2422 407.6 14.7668C412.477 18.1698 416.238 22.4236 418.886 27.5282C421.673 32.5112 423.066 38.345 423.066 45.0295C423.066 50.2556 422.16 55.3602 420.349 60.3432C418.677 65.3262 415.821 69.8839 411.78 74.0161C407.739 78.0268 402.445 81.3083 395.896 83.8606C389.487 86.2914 381.545 87.5067 372.07 87.5067H289.707V136H269.434V4.19305H369.562ZM371.652 70.5523C377.643 70.5523 382.59 69.7623 386.491 68.1823C390.532 66.6024 393.667 64.597 395.896 62.1662C398.125 59.614 399.728 56.8794 400.703 53.9625C401.678 51.0456 402.166 48.311 402.166 45.7587C402.166 43.0849 401.609 40.3503 400.494 37.555C399.519 34.6381 397.847 31.9643 395.478 29.5335C393.249 27.1028 390.253 25.0974 386.491 23.5175C382.868 21.9375 378.41 21.1475 373.115 21.1475H289.707V70.5523H371.652ZM396.523 80.5791L436.024 136H412.616L372.488 81.126L396.523 80.5791Z" fill="#621FBF"/>
<path d="M110.073 4.19305C121.08 4.19305 130.485 5.83381 138.288 9.11531C146.091 12.2753 152.082 16.8937 156.262 22.9705C160.581 29.0474 162.741 36.4004 162.741 45.0295C162.741 50.2556 161.835 55.4209 160.024 60.5255C158.213 65.5085 155.287 70.0662 151.246 74.1984C147.345 78.2091 142.189 81.4299 135.78 83.8606C129.371 86.2914 121.568 87.5067 112.372 87.5067H30.009V136H9.73596V4.19305L110.073 4.19305ZM112.163 70.5523C118.154 70.5523 123.101 69.7015 127.002 68C130.903 66.2985 133.969 64.1716 136.198 61.6193C138.427 58.9455 140.03 56.1502 141.005 53.2333C141.98 50.3164 142.468 47.7033 142.468 45.3941C142.468 42.7203 141.98 39.9857 141.005 37.1904C140.03 34.2735 138.358 31.6604 135.989 29.3512C133.76 26.9205 130.764 24.9759 127.002 23.5175C123.379 21.9375 118.851 21.1475 113.417 21.1475H30.009V70.5523H112.163Z" fill="#621FBF"/>
<path d="M892.896 208.716C895.727 208.716 898.191 209.653 900.286 211.529C902.401 213.386 903.458 215.776 903.458 218.699C903.458 222.266 901.923 225.033 898.852 227C903.118 228.71 905.25 231.762 905.25 236.156C905.25 239.097 904.166 241.497 901.996 243.353C899.827 245.21 897.317 246.139 894.468 246.139H877.452C875.944 246.139 875.191 245.716 875.191 244.87V209.984C875.191 209.139 875.944 208.716 877.452 208.716H892.896ZM879.686 226.173H892.896C894.716 226.173 896.177 225.345 897.28 223.691C898.402 222.036 898.963 220.372 898.963 218.699C898.963 217.044 898.402 215.39 897.28 213.735C896.159 212.062 894.697 211.225 892.896 211.225H879.686V226.173ZM879.686 228.682V243.629H894.468C896.324 243.629 897.832 242.82 898.99 241.202C900.167 239.566 900.755 237.884 900.755 236.156C900.755 234.427 900.167 232.754 898.99 231.137C897.832 229.5 896.324 228.682 894.468 228.682H879.686Z" fill="white"/>
<path d="M836.913 209.322C836.913 208.477 837.667 208.054 839.174 208.054C840.663 208.054 841.408 208.477 841.408 209.322V234.308C841.408 238.261 839.735 241.331 836.389 243.519C833.061 245.707 829.614 246.801 826.047 246.801C822.517 246.801 819.098 245.698 815.788 243.491C812.479 241.285 810.824 238.224 810.824 234.308V209.322C810.824 208.477 811.569 208.054 813.058 208.054C814.566 208.054 815.319 208.477 815.319 209.322V234.308C815.319 237.139 816.432 239.511 818.656 241.423C820.881 243.335 823.345 244.291 826.047 244.291C828.787 244.31 831.278 243.363 833.521 241.451C835.782 239.539 836.913 237.158 836.913 234.308V209.322Z" fill="white"/>
<path d="M753.352 209.295C753.352 208.468 754.106 208.054 755.613 208.054C757.103 208.054 757.847 208.468 757.847 209.295V243.629H776.848C778.356 243.629 779.11 244.052 779.11 244.898C779.11 245.725 778.356 246.139 776.848 246.139H755.613C754.106 246.139 753.352 245.725 753.352 244.898V209.295Z" fill="white"/>
<path d="M718.742 233.619C720.231 233.619 720.976 234.051 720.976 234.915C720.976 235.19 720.865 235.714 720.645 236.487C719.67 239.851 717.593 242.416 714.412 244.181C711.25 245.927 707.977 246.801 704.595 246.801C698.95 246.801 694.556 245.008 691.412 241.423C688.287 237.838 686.724 233.26 686.724 227.689C686.724 222.045 688.296 217.366 691.44 213.652C694.584 209.92 699.097 208.054 704.981 208.054C708.437 208.054 711.746 208.982 714.909 210.839C718.071 212.696 720.02 215.399 720.755 218.947C720.865 219.352 720.921 219.664 720.921 219.885C720.921 220.786 720.167 221.236 718.659 221.236C717.262 221.236 716.517 220.85 716.425 220.078C715.598 213.735 711.783 210.563 704.981 210.563C700.311 210.563 696.845 212.347 694.584 215.914C692.322 219.462 691.192 223.323 691.192 227.496C691.192 231.596 692.258 235.42 694.391 238.969C696.542 242.517 699.943 244.291 704.595 244.291C707.389 244.291 709.954 243.409 712.289 241.644C714.642 239.879 716.049 237.581 716.508 234.749C716.637 233.995 717.381 233.619 718.742 233.619Z" fill="white"/>
<path d="M613.698 235.383C613.698 238.932 612.052 241.726 608.762 243.767C605.489 245.79 601.876 246.801 597.923 246.801C594.596 246.801 591.332 246.019 588.133 244.457C584.953 242.875 583.031 240.283 582.37 236.68C582.296 236.275 582.259 236.027 582.259 235.935C582.259 235.126 583.031 234.722 584.576 234.722C585.826 234.722 586.543 235.08 586.727 235.797C588.216 241.515 592.013 244.346 598.117 244.291C600.58 244.254 603.044 243.51 605.507 242.057C607.971 240.587 609.203 238.445 609.203 235.632C609.203 233.609 607.98 232.028 605.535 230.888C603.733 230.043 601.463 229.473 598.723 229.178C597.069 229.013 595.322 228.746 593.483 228.379C591.663 227.993 589.99 227.404 588.464 226.614C584.971 224.812 583.225 222.045 583.225 218.313C583.225 214.599 584.953 211.961 588.409 210.398C591.866 208.835 595.129 208.054 598.199 208.054C601.27 208.054 604.193 208.762 606.969 210.177C609.764 211.593 611.602 213.873 612.485 217.017C612.595 217.403 612.65 217.642 612.65 217.734C612.65 218.487 611.869 218.864 610.306 218.864C609.056 218.864 608.339 218.497 608.155 217.761C607.052 212.963 603.742 210.563 598.227 210.563C595.91 210.563 593.575 211.17 591.222 212.384C588.887 213.579 587.72 215.546 587.72 218.285C587.72 220.216 589.071 221.778 591.774 222.973C593.024 223.507 594.338 223.911 595.717 224.187C597.096 224.463 598.245 224.647 599.164 224.738C600.985 224.922 602.832 225.216 604.708 225.621C606.583 226.025 608.238 226.687 609.672 227.607C612.356 229.372 613.698 231.964 613.698 235.383Z" fill="white"/>
<path d="M551.262 235.383C551.262 238.932 549.616 241.726 546.326 243.767C543.053 245.79 539.44 246.801 535.487 246.801C532.16 246.801 528.896 246.019 525.697 244.457C522.517 242.875 520.595 240.283 519.934 236.68C519.86 236.275 519.823 236.027 519.823 235.935C519.823 235.126 520.595 234.722 522.14 234.722C523.39 234.722 524.107 235.08 524.291 235.797C525.78 241.515 529.577 244.346 535.68 244.291C538.144 244.254 540.608 243.51 543.071 242.057C545.535 240.587 546.767 238.445 546.767 235.632C546.767 233.609 545.544 232.028 543.099 230.888C541.297 230.043 539.027 229.473 536.287 229.178C534.633 229.013 532.886 228.746 531.047 228.379C529.227 227.993 527.554 227.404 526.028 226.614C522.535 224.812 520.788 222.045 520.788 218.313C520.788 214.599 522.517 211.961 525.973 210.398C529.43 208.835 532.693 208.054 535.763 208.054C538.834 208.054 541.757 208.762 544.533 210.177C547.328 211.593 549.166 213.873 550.049 217.017C550.159 217.403 550.214 217.642 550.214 217.734C550.214 218.487 549.433 218.864 547.87 218.864C546.62 218.864 545.903 218.497 545.719 217.761C544.616 212.963 541.306 210.563 535.791 210.563C533.474 210.563 531.139 211.17 528.786 212.384C526.451 213.579 525.284 215.546 525.284 218.285C525.284 220.216 526.635 221.778 529.338 222.973C530.588 223.507 531.902 223.911 533.281 224.187C534.66 224.463 535.809 224.647 536.728 224.738C538.549 224.922 540.396 225.216 542.272 225.621C544.147 226.025 545.802 226.687 547.236 227.607C549.92 229.372 551.262 231.964 551.262 235.383Z" fill="white"/>
<path d="M458.656 209.957C458.656 209.129 459.4 208.716 460.889 208.716H485.875C487.364 208.716 488.109 209.129 488.109 209.957C488.109 210.802 487.364 211.225 485.875 211.225H463.151V226.145H482.593C484.101 226.145 484.854 226.568 484.854 227.414C484.854 228.259 484.101 228.682 482.593 228.682H463.151V243.629H485.875C487.364 243.629 488.109 244.052 488.109 244.898C488.109 245.725 487.364 246.139 485.875 246.139H460.889C459.4 246.139 458.656 245.725 458.656 244.898V209.957Z" fill="white"/>
<path d="M422.115 246.801C420.883 246.801 420.047 246.507 419.605 245.918L396.22 214.011V245.946C396.22 246.516 395.677 246.801 394.592 246.801C393.508 246.801 392.965 246.516 392.965 245.946V209.598C392.965 208.569 393.885 208.054 395.723 208.054C396.973 208.054 397.819 208.348 398.26 208.936L421.646 240.844V208.936C421.646 208.348 422.189 208.054 423.273 208.054C424.358 208.054 424.9 208.348 424.9 208.936V245.312C424.9 246.304 423.972 246.801 422.115 246.801Z" fill="white"/>
<path d="M347.296 245.229C347.296 246.056 346.552 246.47 345.063 246.47C343.555 246.47 342.801 246.056 342.801 245.229V210.894H331.081C329.592 210.894 328.847 210.472 328.847 209.626C328.847 208.798 329.592 208.385 331.081 208.385H359.017C360.506 208.385 361.251 208.798 361.251 209.626C361.251 210.472 360.506 210.894 359.017 210.894H347.296V245.229Z" fill="white"/>
<path d="M298.511 245.56C298.511 246.387 297.767 246.801 296.277 246.801C294.77 246.801 294.016 246.387 294.016 245.56V209.295C294.016 208.468 294.77 208.054 296.277 208.054C297.767 208.054 298.511 208.468 298.511 209.295V245.56Z" fill="white"/>
<path d="M239.826 245.56C239.826 246.387 239.072 246.801 237.564 246.801C236.075 246.801 235.331 246.387 235.331 245.56V209.957C235.331 209.129 236.075 208.716 237.564 208.716H260.757C262.247 208.716 262.991 209.129 262.991 209.957C262.991 210.802 262.247 211.225 260.757 211.225H239.826V226.366H257.476C258.983 226.366 259.737 226.779 259.737 227.607C259.737 228.452 258.983 228.875 257.476 228.875H239.826V245.56Z" fill="white"/>
<path d="M1125.02 227.312L1040.4 227.312L972.051 227.312C968.349 227.312 965.159 227.426 962.478 227.655C959.67 227.883 958.266 229.024 958.266 231.078C958.266 233.131 959.67 234.272 962.478 234.501C965.159 234.729 968.349 234.843 972.051 234.843L1125.02 234.843C1128.09 234.843 1131.21 234.729 1134.41 234.501C1137.47 234.272 1139 233.055 1139 230.849C1139 228.948 1137.53 227.883 1134.6 227.655C1131.53 227.426 1128.34 227.312 1125.02 227.312Z" fill="#621FBF"/>
<path d="M166.758 227.312L82.1344 227.312L13.7848 227.312C10.0833 227.312 6.8924 227.426 4.21202 227.655C1.40401 227.883 4.65115e-07 229.024 3.00957e-07 231.078C1.36798e-07 233.131 1.40401 234.272 4.21202 234.501C6.8924 234.729 10.0833 234.843 13.7848 234.843L166.758 234.843C169.821 234.843 172.948 234.729 176.139 234.501C179.202 234.272 180.734 233.055 180.734 230.849C180.734 228.948 179.266 227.883 176.33 227.655C173.267 227.426 170.076 227.312 166.758 227.312Z" fill="#621FBF"/>
</svg>
