<svg width="1139" height="917" viewBox="0 0 1139 917" fill="none" xmlns="http://www.w3.org/2000/svg">
<rect x="1004" y="788" width="128" height="18" fill="#621FBF"/>
<rect x="1004" y="731" width="128" height="18" fill="#621FBF"/>
<rect x="1004" y="674" width="128" height="18" fill="white"/>
<path d="M731.682 806V670H731.891L811.102 768.08L802.533 766.622L881.535 670H881.953V806H861.889V710.107L863.143 719.04L806.086 789.41H805.668L747.775 719.04L751.328 710.836V806H731.682Z" fill="#621FBF"/>
<path d="M562.603 674.193H582.875V806H562.603V674.193Z" fill="#621FBF"/>
<path d="M369.562 674.193C377.225 674.193 384.262 675.105 390.671 676.928C397.22 678.629 402.863 681.242 407.6 684.767C412.477 688.17 416.238 692.424 418.886 697.528C421.673 702.511 423.066 708.345 423.066 715.03C423.066 720.256 422.16 725.36 420.349 730.343C418.677 735.326 415.821 739.884 411.78 744.016C407.739 748.027 402.445 751.308 395.896 753.861C389.487 756.291 381.545 757.507 372.07 757.507H289.707V806H269.434V674.193H369.562ZM371.652 740.552C377.643 740.552 382.59 739.762 386.491 738.182C390.532 736.602 393.667 734.597 395.896 732.166C398.125 729.614 399.728 726.879 400.703 723.962C401.678 721.046 402.166 718.311 402.166 715.759C402.166 713.085 401.609 710.35 400.494 707.555C399.519 704.638 397.847 701.964 395.478 699.534C393.249 697.103 390.253 695.097 386.491 693.517C382.868 691.937 378.41 691.147 373.115 691.147H289.707V740.552H371.652ZM396.523 750.579L436.024 806H412.616L372.488 751.126L396.523 750.579Z" fill="#621FBF"/>
<path d="M110.073 674.193C121.08 674.193 130.485 675.834 138.288 679.115C146.091 682.275 152.082 686.894 156.262 692.971C160.581 699.047 162.741 706.4 162.741 715.03C162.741 720.256 161.835 725.421 160.024 730.525C158.213 735.509 155.287 740.066 151.246 744.198C147.345 748.209 142.189 751.43 135.78 753.861C129.371 756.291 121.568 757.507 112.372 757.507H30.009V806H9.73596V674.193L110.073 674.193ZM112.163 740.552C118.154 740.552 123.101 739.702 127.002 738C130.903 736.299 133.969 734.172 136.198 731.619C138.427 728.946 140.03 726.15 141.005 723.233C141.98 720.316 142.468 717.703 142.468 715.394C142.468 712.72 141.98 709.986 141.005 707.19C140.03 704.273 138.358 701.66 135.989 699.351C133.76 696.92 130.764 694.976 127.002 693.517C123.379 691.937 118.851 691.147 113.417 691.147H30.009V740.552H112.163Z" fill="#621FBF"/>
<path d="M892.896 878.716C895.727 878.716 898.191 879.653 900.286 881.529C902.401 883.386 903.458 885.776 903.458 888.699C903.458 892.266 901.923 895.033 898.852 897C903.118 898.71 905.25 901.762 905.25 906.156C905.25 909.097 904.166 911.497 901.996 913.353C899.827 915.21 897.317 916.139 894.468 916.139H877.452C875.944 916.139 875.191 915.716 875.191 914.87V879.984C875.191 879.139 875.944 878.716 877.452 878.716H892.896ZM879.686 896.173H892.896C894.716 896.173 896.177 895.345 897.28 893.691C898.402 892.036 898.963 890.372 898.963 888.699C898.963 887.044 898.402 885.39 897.28 883.735C896.159 882.062 894.697 881.225 892.896 881.225H879.686V896.173ZM879.686 898.682V913.629H894.468C896.324 913.629 897.832 912.82 898.99 911.202C900.167 909.566 900.755 907.884 900.755 906.156C900.755 904.427 900.167 902.754 898.99 901.137C897.832 899.5 896.324 898.682 894.468 898.682H879.686Z" fill="white"/>
<path d="M836.913 879.322C836.913 878.477 837.667 878.054 839.174 878.054C840.663 878.054 841.408 878.477 841.408 879.322V904.308C841.408 908.261 839.735 911.331 836.389 913.519C833.061 915.707 829.614 916.801 826.047 916.801C822.517 916.801 819.098 915.698 815.788 913.491C812.479 911.285 810.824 908.224 810.824 904.308V879.322C810.824 878.477 811.569 878.054 813.058 878.054C814.566 878.054 815.319 878.477 815.319 879.322V904.308C815.319 907.139 816.432 909.511 818.656 911.423C820.881 913.335 823.345 914.291 826.047 914.291C828.787 914.31 831.278 913.363 833.521 911.451C835.782 909.539 836.913 907.158 836.913 904.308V879.322Z" fill="white"/>
<path d="M753.352 879.295C753.352 878.468 754.106 878.054 755.613 878.054C757.103 878.054 757.847 878.468 757.847 879.295V913.629H776.848C778.356 913.629 779.11 914.052 779.11 914.898C779.11 915.725 778.356 916.139 776.848 916.139H755.613C754.106 916.139 753.352 915.725 753.352 914.898V879.295Z" fill="white"/>
<path d="M718.742 903.619C720.231 903.619 720.976 904.051 720.976 904.915C720.976 905.19 720.865 905.714 720.645 906.487C719.67 909.851 717.593 912.416 714.412 914.181C711.25 915.927 707.977 916.801 704.595 916.801C698.95 916.801 694.556 915.008 691.412 911.423C688.287 907.838 686.724 903.26 686.724 897.689C686.724 892.045 688.296 887.366 691.44 883.652C694.584 879.92 699.097 878.054 704.981 878.054C708.437 878.054 711.746 878.982 714.909 880.839C718.071 882.696 720.02 885.399 720.755 888.947C720.865 889.352 720.921 889.664 720.921 889.885C720.921 890.786 720.167 891.236 718.659 891.236C717.262 891.236 716.517 890.85 716.425 890.078C715.598 883.735 711.783 880.563 704.981 880.563C700.311 880.563 696.845 882.347 694.584 885.914C692.322 889.462 691.192 893.323 691.192 897.496C691.192 901.596 692.258 905.42 694.391 908.969C696.542 912.517 699.943 914.291 704.595 914.291C707.389 914.291 709.954 913.409 712.289 911.644C714.642 909.879 716.049 907.581 716.508 904.749C716.637 903.995 717.381 903.619 718.742 903.619Z" fill="white"/>
<path d="M613.698 905.383C613.698 908.932 612.052 911.726 608.762 913.767C605.489 915.79 601.876 916.801 597.923 916.801C594.596 916.801 591.332 916.019 588.133 914.457C584.953 912.875 583.031 910.283 582.37 906.68C582.296 906.275 582.259 906.027 582.259 905.935C582.259 905.126 583.031 904.722 584.576 904.722C585.826 904.722 586.543 905.08 586.727 905.797C588.216 911.515 592.013 914.346 598.117 914.291C600.58 914.254 603.044 913.51 605.507 912.057C607.971 910.587 609.203 908.445 609.203 905.632C609.203 903.609 607.98 902.028 605.535 900.888C603.733 900.043 601.463 899.473 598.723 899.178C597.069 899.013 595.322 898.746 593.483 898.379C591.663 897.993 589.99 897.404 588.464 896.614C584.971 894.812 583.225 892.045 583.225 888.313C583.225 884.599 584.953 881.961 588.409 880.398C591.866 878.835 595.129 878.054 598.199 878.054C601.27 878.054 604.193 878.762 606.969 880.177C609.764 881.593 611.602 883.873 612.485 887.017C612.595 887.403 612.65 887.642 612.65 887.734C612.65 888.487 611.869 888.864 610.306 888.864C609.056 888.864 608.339 888.497 608.155 887.761C607.052 882.963 603.742 880.563 598.227 880.563C595.91 880.563 593.575 881.17 591.222 882.384C588.887 883.579 587.72 885.546 587.72 888.285C587.72 890.216 589.071 891.778 591.774 892.973C593.024 893.507 594.338 893.911 595.717 894.187C597.096 894.463 598.245 894.647 599.164 894.738C600.985 894.922 602.832 895.216 604.708 895.621C606.583 896.025 608.238 896.687 609.672 897.607C612.356 899.372 613.698 901.964 613.698 905.383Z" fill="white"/>
<path d="M551.262 905.383C551.262 908.932 549.616 911.726 546.326 913.767C543.053 915.79 539.44 916.801 535.487 916.801C532.16 916.801 528.896 916.019 525.697 914.457C522.517 912.875 520.595 910.283 519.934 906.68C519.86 906.275 519.823 906.027 519.823 905.935C519.823 905.126 520.595 904.722 522.14 904.722C523.39 904.722 524.107 905.08 524.291 905.797C525.78 911.515 529.577 914.346 535.68 914.291C538.144 914.254 540.608 913.51 543.071 912.057C545.535 910.587 546.767 908.445 546.767 905.632C546.767 903.609 545.544 902.028 543.099 900.888C541.297 900.043 539.027 899.473 536.287 899.178C534.633 899.013 532.886 898.746 531.047 898.379C529.227 897.993 527.554 897.404 526.028 896.614C522.535 894.812 520.788 892.045 520.788 888.313C520.788 884.599 522.517 881.961 525.973 880.398C529.43 878.835 532.693 878.054 535.763 878.054C538.834 878.054 541.757 878.762 544.533 880.177C547.328 881.593 549.166 883.873 550.049 887.017C550.159 887.403 550.214 887.642 550.214 887.734C550.214 888.487 549.433 888.864 547.87 888.864C546.62 888.864 545.903 888.497 545.719 887.761C544.616 882.963 541.306 880.563 535.791 880.563C533.474 880.563 531.139 881.17 528.786 882.384C526.451 883.579 525.284 885.546 525.284 888.285C525.284 890.216 526.635 891.778 529.338 892.973C530.588 893.507 531.902 893.911 533.281 894.187C534.66 894.463 535.809 894.647 536.728 894.738C538.549 894.922 540.396 895.216 542.272 895.621C544.147 896.025 545.802 896.687 547.236 897.607C549.92 899.372 551.262 901.964 551.262 905.383Z" fill="white"/>
<path d="M458.656 879.957C458.656 879.129 459.4 878.716 460.889 878.716H485.875C487.364 878.716 488.109 879.129 488.109 879.957C488.109 880.802 487.364 881.225 485.875 881.225H463.151V896.145H482.593C484.101 896.145 484.854 896.568 484.854 897.414C484.854 898.259 484.101 898.682 482.593 898.682H463.151V913.629H485.875C487.364 913.629 488.109 914.052 488.109 914.898C488.109 915.725 487.364 916.139 485.875 916.139H460.889C459.4 916.139 458.656 915.725 458.656 914.898V879.957Z" fill="white"/>
<path d="M422.115 916.801C420.883 916.801 420.047 916.507 419.605 915.918L396.22 884.011V915.946C396.22 916.516 395.677 916.801 394.592 916.801C393.508 916.801 392.965 916.516 392.965 915.946V879.598C392.965 878.569 393.885 878.054 395.723 878.054C396.973 878.054 397.819 878.348 398.26 878.936L421.646 910.844V878.936C421.646 878.348 422.189 878.054 423.273 878.054C424.358 878.054 424.9 878.348 424.9 878.936V915.312C424.9 916.304 423.972 916.801 422.115 916.801Z" fill="white"/>
<path d="M347.296 915.229C347.296 916.056 346.552 916.47 345.063 916.47C343.555 916.47 342.801 916.056 342.801 915.229V880.894H331.081C329.592 880.894 328.847 880.472 328.847 879.626C328.847 878.798 329.592 878.385 331.081 878.385H359.017C360.506 878.385 361.251 878.798 361.251 879.626C361.251 880.472 360.506 880.894 359.017 880.894H347.296V915.229Z" fill="white"/>
<path d="M298.511 915.56C298.511 916.387 297.767 916.801 296.277 916.801C294.77 916.801 294.016 916.387 294.016 915.56V879.295C294.016 878.468 294.77 878.054 296.277 878.054C297.767 878.054 298.511 878.468 298.511 879.295V915.56Z" fill="white"/>
<path d="M239.826 915.56C239.826 916.387 239.072 916.801 237.564 916.801C236.075 916.801 235.331 916.387 235.331 915.56V879.957C235.331 879.129 236.075 878.716 237.564 878.716H260.757C262.247 878.716 262.991 879.129 262.991 879.957C262.991 880.802 262.247 881.225 260.757 881.225H239.826V896.366H257.476C258.983 896.366 259.737 896.779 259.737 897.607C259.737 898.452 258.983 898.875 257.476 898.875H239.826V915.56Z" fill="white"/>
<path d="M1125.02 897.312L1040.4 897.312L972.051 897.312C968.349 897.312 965.159 897.426 962.478 897.655C959.67 897.883 958.266 899.024 958.266 901.078C958.266 903.131 959.67 904.272 962.478 904.501C965.159 904.729 968.349 904.843 972.051 904.843L1125.02 904.843C1128.09 904.843 1131.21 904.729 1134.41 904.501C1137.47 904.272 1139 903.055 1139 900.849C1139 898.948 1137.53 897.883 1134.6 897.655C1131.53 897.426 1128.34 897.312 1125.02 897.312Z" fill="#621FBF"/>
<path d="M166.758 897.312L82.1344 897.312L13.7848 897.312C10.0833 897.312 6.8924 897.426 4.21202 897.655C1.40401 897.883 4.65115e-07 899.024 3.00957e-07 901.078C1.36798e-07 903.131 1.40401 904.272 4.21202 904.501C6.8924 904.729 10.0833 904.843 13.7848 904.843L166.758 904.843C169.821 904.843 172.948 904.729 176.139 904.501C179.202 904.272 180.734 903.055 180.734 900.849C180.734 898.948 179.266 897.883 176.33 897.655C173.267 897.426 170.076 897.312 166.758 897.312Z" fill="#621FBF"/>
<path d="M532.788 453.595V518.192L638.216 439.121V373.583L532.788 453.595Z" fill="#621FBF"/>
<path d="M634.451 179.793H424.536V629.145L482.858 585.845V298.5L531.773 259.112L634.451 179.793Z" fill="white"/>
<path d="M424.536 62.1273L374.646 0H645.747C732.349 16.0025 762.272 86.6484 764.354 141.198C766.435 195.748 745.527 227.8 704.109 267.336L534.671 397.238V323.815L664.574 219.328C664.574 219.328 680.576 207.091 690.931 193.912C691.512 193.172 705.05 180.734 705.05 140.257C705.05 99.7802 686.224 74.3645 634.451 62.1273H424.536Z" fill="white"/>
</svg>
