<svg width="1123" height="136" viewBox="0 0 1123 136" fill="none" xmlns="http://www.w3.org/2000/svg">
<rect x="994.264" y="118" width="128" height="18" fill="#621FBF"/>
<rect x="994.264" y="61" width="128" height="18" fill="#621FBF"/>
<rect x="994.264" y="4" width="128" height="18" fill="white"/>
<path d="M721.946 136V0H722.155L801.366 98.0804L792.797 96.622L871.799 0H872.217V136H852.153V40.1072L853.407 49.0402L796.35 119.41H795.932L738.039 49.0402L741.592 40.8365V136H721.946Z" fill="#621FBF"/>
<path d="M552.867 4.19305H573.14V136H552.867V4.19305Z" fill="#621FBF"/>
<path d="M359.826 4.19305C367.489 4.19305 374.526 5.10458 380.935 6.92765C387.484 8.62917 393.127 11.2422 397.864 14.7668C402.741 18.1698 406.503 22.4236 409.15 27.5282C411.937 32.5112 413.33 38.345 413.33 45.0295C413.33 50.2556 412.424 55.3602 410.613 60.3432C408.941 65.3262 406.085 69.8839 402.044 74.0161C398.003 78.0268 392.709 81.3083 386.16 83.8606C379.751 86.2914 371.809 87.5067 362.334 87.5067H279.971V136H259.698V4.19305H359.826ZM361.916 70.5523C367.907 70.5523 372.854 69.7623 376.755 68.1823C380.796 66.6024 383.931 64.597 386.16 62.1662C388.389 59.614 389.992 56.8794 390.967 53.9625C391.942 51.0456 392.43 48.311 392.43 45.7587C392.43 43.0849 391.873 40.3503 390.758 37.555C389.783 34.6381 388.111 31.9643 385.742 29.5335C383.513 27.1028 380.517 25.0974 376.755 23.5175C373.132 21.9375 368.674 21.1475 363.379 21.1475H279.971V70.5523H361.916ZM386.787 80.5791L426.288 136H402.88L362.752 81.126L386.787 80.5791Z" fill="#621FBF"/>
<path d="M100.337 4.19305C111.344 4.19305 120.749 5.83381 128.552 9.11531C136.355 12.2753 142.346 16.8937 146.526 22.9705C150.845 29.0474 153.005 36.4004 153.005 45.0295C153.005 50.2556 152.099 55.4209 150.288 60.5255C148.477 65.5085 145.551 70.0662 141.51 74.1984C137.609 78.2091 132.453 81.4299 126.044 83.8606C119.635 86.2914 111.832 87.5067 102.636 87.5067H20.273V136H0V4.19305L100.337 4.19305ZM102.427 70.5523C108.418 70.5523 113.365 69.7015 117.266 68C121.167 66.2985 124.233 64.1716 126.462 61.6193C128.691 58.9455 130.294 56.1502 131.269 53.2333C132.244 50.3164 132.732 47.7033 132.732 45.3941C132.732 42.7203 132.244 39.9857 131.269 37.1904C130.294 34.2735 128.622 31.6604 126.253 29.3512C124.024 26.9205 121.028 24.9759 117.266 23.5175C113.643 21.9375 109.115 21.1475 103.681 21.1475H20.273V70.5523H102.427Z" fill="#621FBF"/>
</svg>
